<svg xmlns="http://www.w3.org/2000/svg" width="1463" height="1063" viewBox="0 0 1463 1063" fill="none">
<path d="M0 115H1461M0 70H1461M0 25H1461M0 160H1461M0 205H1461M0 250H1461M0 295H1461M0 340H1461M0 385H1461M0 430H1461M0 475H1461M0 520H1461M0 565H1461M0 610H1461M0 655H1461M0 700H1461M0 745H1461M0 790H1461M0 835H1461M0 880H1461M0 925H1461M0 970H1461M0 1015H1461M0 1060H1461M472 0V1061M607 0V1059M517 0V1061M562 0V1061M697 0V1061M652 0V1061M427 0V1061M382 0V1061M337 0V1061M292 0V1061M247 0V1061M202 0V1061M157 0V1061M112 0V1061M67 0V1061M22 0V1061M1192 0V1063M1327 0V1061M1237 0V1063M1282 0V1063M1417 0V1063M1372 0V1063M1462 0V1061M1147 0V1063M1102 0V1063M1057 0V1063M1012 0V1063M967 0V1063M922 0V1063M877 0V1063M832 0V1063M787 0V1063M742 0V1063" stroke="#FF72BD" stroke-width="2"/>
</svg>